<?xml version="1.0" encoding="UTF-8" standalone="no"?>
<!DOCTYPE svg PUBLIC "-//W3C//DTD SVG 1.1//EN"
 "http://www.w3.org/Graphics/SVG/1.1/DTD/svg11.dtd">
<!-- Generated by graphviz version 2.43.0 (0)
 -->
<!-- Title: mtnuniverse Pages: 1 -->
<svg width="1810pt" height="116pt"
 viewBox="0.00 0.00 1810.02 116.00" xmlns="http://www.w3.org/2000/svg" xmlns:xlink="http://www.w3.org/1999/xlink">
<g id="graph0" class="graph" transform="scale(1 1) rotate(0) translate(4 112)">
<title>mtnuniverse</title>
<polygon fill="white" stroke="transparent" points="-4,4 -4,-112 1806.02,-112 1806.02,4 -4,4"/>
<!-- image -->
<g id="node1" class="node">
<title>image</title>
<ellipse fill="none" stroke="black" cx="122.19" cy="-90" rx="122.38" ry="18"/>
<text text-anchor="middle" x="122.19" y="-86.3" font-family="Times,serif" font-size="14.00">mayton.libs:image:1.4.1</text>
</g>
<!-- math -->
<g id="node2" class="node">
<title>math</title>
<ellipse fill="none" stroke="red" cx="233.19" cy="-18" rx="166.27" ry="18"/>
<text text-anchor="middle" x="233.19" y="-14.3" font-family="Times,serif" font-size="14.00">mayton.libs:math:1.0&#45;SNAPSHOT</text>
</g>
<!-- image&#45;&gt;math -->
<g id="edge2" class="edge">
<title>image&#45;&gt;math</title>
<path fill="none" stroke="black" d="M148.49,-72.41C163.21,-63.13 181.75,-51.44 197.73,-41.36"/>
<polygon fill="black" stroke="black" points="199.71,-44.25 206.3,-35.96 195.98,-38.33 199.71,-44.25"/>
</g>
<!-- neural -->
<g id="node3" class="node">
<title>neural</title>
<ellipse fill="none" stroke="red" cx="367.19" cy="-90" rx="105.08" ry="18"/>
<text text-anchor="middle" x="367.19" y="-86.3" font-family="Times,serif" font-size="14.00">mayton.libs:neural:?</text>
</g>
<!-- neural&#45;&gt;math -->
<g id="edge1" class="edge">
<title>neural&#45;&gt;math</title>
<path fill="none" stroke="black" d="M336.11,-72.76C317.82,-63.21 294.47,-51.01 274.63,-40.65"/>
<polygon fill="black" stroke="black" points="275.98,-37.41 265.5,-35.88 272.74,-43.61 275.98,-37.41"/>
</g>
<!-- graph -->
<g id="node4" class="node">
<title>graph</title>
<ellipse fill="none" stroke="black" cx="656.19" cy="-90" rx="142.97" ry="18"/>
<text text-anchor="middle" x="656.19" y="-86.3" font-family="Times,serif" font-size="14.00">mayton.libs:mtn&#45;graph:5.0.4</text>
</g>
<!-- encoders -->
<g id="node6" class="node">
<title>encoders</title>
<ellipse fill="none" stroke="red" cx="656.19" cy="-18" rx="127.28" ry="18"/>
<text text-anchor="middle" x="656.19" y="-14.3" font-family="Times,serif" font-size="14.00">mayton.libs:encoders:1.1</text>
</g>
<!-- graph&#45;&gt;encoders -->
<g id="edge3" class="edge">
<title>graph&#45;&gt;encoders</title>
<path fill="none" stroke="black" d="M656.19,-71.7C656.19,-63.98 656.19,-54.71 656.19,-46.11"/>
<polygon fill="black" stroke="black" points="659.69,-46.1 656.19,-36.1 652.69,-46.1 659.69,-46.1"/>
</g>
<!-- exods -->
<g id="node5" class="node">
<title>exods</title>
<ellipse fill="none" stroke="red" cx="1127.19" cy="-90" rx="124.58" ry="18"/>
<text text-anchor="middle" x="1127.19" y="-86.3" font-family="Times,serif" font-size="14.00">ayton.libs:mtn&#45;exods:1.0</text>
</g>
<!-- network -->
<g id="node7" class="node">
<title>network</title>
<ellipse fill="none" stroke="black" cx="933.19" cy="-18" rx="131.88" ry="18"/>
<text text-anchor="middle" x="933.19" y="-14.3" font-family="Times,serif" font-size="14.00">mayton.libs:network:1.3.3</text>
</g>
<!-- utils -->
<g id="node8" class="node">
<title>utils</title>
<ellipse fill="none" stroke="black" cx="1326.19" cy="-18" rx="120.48" ry="18"/>
<text text-anchor="middle" x="1326.19" y="-14.3" font-family="Times,serif" font-size="14.00">mayton.libs:utils:1.10.0</text>
</g>
<!-- banking -->
<g id="node9" class="node">
<title>banking</title>
<ellipse fill="none" stroke="red" cx="1601.19" cy="-90" rx="200.66" ry="18"/>
<text text-anchor="middle" x="1601.19" y="-86.3" font-family="Times,serif" font-size="14.00">mayton.libs:mtn&#45;banking:1.0&#45;SNAPSHOT</text>
</g>
<!-- db2orc -->
<g id="node10" class="node">
<title>db2orc</title>
<ellipse fill="none" stroke="black" cx="1326.19" cy="-90" rx="55.79" ry="18"/>
<text text-anchor="middle" x="1326.19" y="-86.3" font-family="Times,serif" font-size="14.00">Db&#45;to&#45;Orc</text>
</g>
<!-- db2orc&#45;&gt;utils -->
<g id="edge4" class="edge">
<title>db2orc&#45;&gt;utils</title>
<path fill="none" stroke="black" d="M1326.19,-71.7C1326.19,-63.98 1326.19,-54.71 1326.19,-46.11"/>
<polygon fill="black" stroke="black" points="1329.69,-46.1 1326.19,-36.1 1322.69,-46.1 1329.69,-46.1"/>
</g>
<!-- dhtobserver -->
<g id="node11" class="node">
<title>dhtobserver</title>
<ellipse fill="none" stroke="black" cx="911.19" cy="-90" rx="73.39" ry="18"/>
<text text-anchor="middle" x="911.19" y="-86.3" font-family="Times,serif" font-size="14.00">Dht&#45;Observer</text>
</g>
<!-- dhtobserver&#45;&gt;encoders -->
<g id="edge5" class="edge">
<title>dhtobserver&#45;&gt;encoders</title>
<path fill="none" stroke="black" d="M864.12,-76.08C824.12,-65.1 766.26,-49.22 721.73,-36.99"/>
<polygon fill="black" stroke="black" points="722.44,-33.56 711.87,-34.28 720.58,-40.31 722.44,-33.56"/>
</g>
<!-- dhtobserver&#45;&gt;network -->
<g id="edge6" class="edge">
<title>dhtobserver&#45;&gt;network</title>
<path fill="none" stroke="black" d="M916.63,-71.7C919.08,-63.9 922.03,-54.51 924.76,-45.83"/>
<polygon fill="black" stroke="black" points="928.15,-46.69 927.81,-36.1 921.48,-44.59 928.15,-46.69"/>
</g>
</g>
</svg>
