<?xml version="1.0" encoding="UTF-8" standalone="no"?>
<!DOCTYPE svg PUBLIC "-//W3C//DTD SVG 1.1//EN"
 "http://www.w3.org/Graphics/SVG/1.1/DTD/svg11.dtd">
<!-- Generated by graphviz version 2.43.0 (0)
 -->
<!-- Title: mtnuniverse Pages: 1 -->
<svg width="1536pt" height="116pt"
 viewBox="0.00 0.00 1535.50 116.00" xmlns="http://www.w3.org/2000/svg" xmlns:xlink="http://www.w3.org/1999/xlink">
<g id="graph0" class="graph" transform="scale(1 1) rotate(0) translate(4 112)">
<title>mtnuniverse</title>
<polygon fill="white" stroke="transparent" points="-4,4 -4,-112 1531.5,-112 1531.5,4 -4,4"/>
<!-- image -->
<g id="node1" class="node">
<title>image</title>
<polygon fill="none" stroke="black" points="188,-108 0,-108 0,-72 188,-72 188,-108"/>
<text text-anchor="middle" x="94" y="-86.3" font-family="Times,serif" font-size="14.00">mayton.libs:image:1.4.1</text>
</g>
<!-- math -->
<g id="node2" class="node">
<title>math</title>
<polygon fill="none" stroke="red" points="310,-36 54,-36 54,0 310,0 310,-36"/>
<text text-anchor="middle" x="182" y="-14.3" font-family="Times,serif" font-size="14.00">mayton.libs:math:1.0&#45;SNAPSHOT</text>
</g>
<!-- image&#45;&gt;math -->
<g id="edge2" class="edge">
<title>image&#45;&gt;math</title>
<path fill="none" stroke="black" d="M115.75,-71.7C126.84,-62.88 140.47,-52.03 152.49,-42.47"/>
<polygon fill="black" stroke="black" points="154.85,-45.07 160.5,-36.1 150.49,-39.59 154.85,-45.07"/>
</g>
<!-- neural -->
<g id="node3" class="node">
<title>neural</title>
<polygon fill="none" stroke="red" points="368,-108 206,-108 206,-72 368,-72 368,-108"/>
<text text-anchor="middle" x="287" y="-86.3" font-family="Times,serif" font-size="14.00">mayton.libs:neural:?</text>
</g>
<!-- neural&#45;&gt;math -->
<g id="edge1" class="edge">
<title>neural&#45;&gt;math</title>
<path fill="none" stroke="black" d="M261.31,-71.88C247.71,-62.81 230.83,-51.55 216.14,-41.76"/>
<polygon fill="black" stroke="black" points="218.05,-38.82 207.78,-36.19 214.16,-44.65 218.05,-38.82"/>
</g>
<!-- graph -->
<g id="node4" class="node">
<title>graph</title>
<polygon fill="none" stroke="black" points="623,-108 403,-108 403,-72 623,-72 623,-108"/>
<text text-anchor="middle" x="513" y="-86.3" font-family="Times,serif" font-size="14.00">mayton.libs:mtn&#45;graph:5.0.4</text>
</g>
<!-- encoders -->
<g id="node6" class="node">
<title>encoders</title>
<polygon fill="none" stroke="red" points="611,-36 415,-36 415,0 611,0 611,-36"/>
<text text-anchor="middle" x="513" y="-14.3" font-family="Times,serif" font-size="14.00">mayton.libs:encoders:1.1</text>
</g>
<!-- graph&#45;&gt;encoders -->
<g id="edge3" class="edge">
<title>graph&#45;&gt;encoders</title>
<path fill="none" stroke="black" d="M513,-71.7C513,-63.98 513,-54.71 513,-46.11"/>
<polygon fill="black" stroke="black" points="516.5,-46.1 513,-36.1 509.5,-46.1 516.5,-46.1"/>
</g>
<!-- exods -->
<g id="node5" class="node">
<title>exods</title>
<polygon fill="none" stroke="red" points="981,-108 789,-108 789,-72 981,-72 981,-108"/>
<text text-anchor="middle" x="885" y="-86.3" font-family="Times,serif" font-size="14.00">ayton.libs:mtn&#45;exods:1.0</text>
</g>
<!-- network -->
<g id="node7" class="node">
<title>network</title>
<polygon fill="none" stroke="black" points="831.5,-36 628.5,-36 628.5,0 831.5,0 831.5,-36"/>
<text text-anchor="middle" x="730" y="-14.3" font-family="Times,serif" font-size="14.00">mayton.libs:network:1.3.3</text>
</g>
<!-- utils -->
<g id="node8" class="node">
<title>utils</title>
<polygon fill="none" stroke="black" points="1189.5,-36 1004.5,-36 1004.5,0 1189.5,0 1189.5,-36"/>
<text text-anchor="middle" x="1097" y="-14.3" font-family="Times,serif" font-size="14.00">mayton.libs:utils:1.10.0</text>
</g>
<!-- banking -->
<g id="node9" class="node">
<title>banking</title>
<polygon fill="none" stroke="red" points="1527.5,-108 1218.5,-108 1218.5,-72 1527.5,-72 1527.5,-108"/>
<text text-anchor="middle" x="1373" y="-86.3" font-family="Times,serif" font-size="14.00">mayton.libs:mtn&#45;banking:1.0&#45;SNAPSHOT</text>
</g>
<!-- db2orc -->
<g id="node10" class="node">
<title>db2orc</title>
<polygon fill="none" stroke="black" points="1085,-108 999,-108 999,-104 995,-104 995,-100 999,-100 999,-80 995,-80 995,-76 999,-76 999,-72 1085,-72 1085,-108"/>
<polyline fill="none" stroke="black" points="999,-104 1003,-104 1003,-100 999,-100 "/>
<polyline fill="none" stroke="black" points="999,-80 1003,-80 1003,-76 999,-76 "/>
<text text-anchor="middle" x="1042" y="-86.3" font-family="Times,serif" font-size="14.00">Db&#45;to&#45;Orc</text>
</g>
<!-- db2orc&#45;&gt;utils -->
<g id="edge4" class="edge">
<title>db2orc&#45;&gt;utils</title>
<path fill="none" stroke="black" d="M1055.6,-71.7C1062.12,-63.39 1070.07,-53.28 1077.25,-44.14"/>
<polygon fill="black" stroke="black" points="1080.13,-46.13 1083.56,-36.1 1074.63,-41.81 1080.13,-46.13"/>
</g>
<!-- httprsync -->
<g id="node11" class="node">
<title>httprsync</title>
<polygon fill="none" stroke="black" points="1200.5,-108 1103.5,-108 1103.5,-104 1099.5,-104 1099.5,-100 1103.5,-100 1103.5,-80 1099.5,-80 1099.5,-76 1103.5,-76 1103.5,-72 1200.5,-72 1200.5,-108"/>
<polyline fill="none" stroke="black" points="1103.5,-104 1107.5,-104 1107.5,-100 1103.5,-100 "/>
<polyline fill="none" stroke="black" points="1103.5,-80 1107.5,-80 1107.5,-76 1103.5,-76 "/>
<text text-anchor="middle" x="1152" y="-86.3" font-family="Times,serif" font-size="14.00">Http&#45;Rsync</text>
</g>
<!-- httprsync&#45;&gt;utils -->
<g id="edge5" class="edge">
<title>httprsync&#45;&gt;utils</title>
<path fill="none" stroke="black" d="M1138.4,-71.7C1131.88,-63.39 1123.93,-53.28 1116.75,-44.14"/>
<polygon fill="black" stroke="black" points="1119.37,-41.81 1110.44,-36.1 1113.87,-46.13 1119.37,-41.81"/>
</g>
<!-- dhtobserver -->
<g id="node12" class="node">
<title>dhtobserver</title>
<polygon fill="none" stroke="black" points="770.5,-108 657.5,-108 657.5,-104 653.5,-104 653.5,-100 657.5,-100 657.5,-80 653.5,-80 653.5,-76 657.5,-76 657.5,-72 770.5,-72 770.5,-108"/>
<polyline fill="none" stroke="black" points="657.5,-104 661.5,-104 661.5,-100 657.5,-100 "/>
<polyline fill="none" stroke="black" points="657.5,-80 661.5,-80 661.5,-76 657.5,-76 "/>
<text text-anchor="middle" x="714" y="-86.3" font-family="Times,serif" font-size="14.00">Dht&#45;Observer</text>
</g>
<!-- dhtobserver&#45;&gt;encoders -->
<g id="edge6" class="edge">
<title>dhtobserver&#45;&gt;encoders</title>
<path fill="none" stroke="black" d="M665.09,-71.97C637,-62.19 601.54,-49.84 571.93,-39.52"/>
<polygon fill="black" stroke="black" points="572.73,-36.09 562.13,-36.11 570.43,-42.71 572.73,-36.09"/>
</g>
<!-- dhtobserver&#45;&gt;network -->
<g id="edge7" class="edge">
<title>dhtobserver&#45;&gt;network</title>
<path fill="none" stroke="black" d="M717.96,-71.7C719.72,-63.98 721.84,-54.71 723.8,-46.11"/>
<polygon fill="black" stroke="black" points="727.27,-46.63 726.09,-36.1 720.45,-45.07 727.27,-46.63"/>
</g>
</g>
</svg>
